<svg width="109" height="109" viewBox="0 0 109 109" fill="none" xmlns="http://www.w3.org/2000/svg">
<path d="M40.3439 101.759L38.1943 101.283L40.2628 91.9428C40.4829 90.9489 40.9114 90.1199 41.5482 89.4559C42.1841 88.7966 42.9736 88.341 43.9168 88.0892C44.8591 87.842 45.8988 87.8443 47.036 88.0961C48.1686 88.3469 49.1098 88.7833 49.8595 89.4052C50.6082 90.0317 51.1316 90.7781 51.4296 91.6442C51.7265 92.515 51.765 93.4474 51.5449 94.4413L49.4763 103.782L47.3337 103.307L49.3638 94.1401C49.5061 93.4976 49.4915 92.8954 49.3201 92.3337C49.144 91.771 48.8266 91.2884 48.3677 90.8861C47.9077 90.4885 47.3195 90.2103 46.6029 90.0516C45.8818 89.8919 45.2288 89.8952 44.6439 90.0615C44.0535 90.2314 43.5643 90.5353 43.1763 90.9731C42.7838 91.4099 42.5163 91.9496 42.374 92.5922L40.3439 101.759Z" fill="white"/>
<path d="M24.409 93.5468L33.0441 81.8419L34.8101 83.1447L26.175 94.8496L24.409 93.5468Z" fill="white"/>
<path d="M11.6601 80.5881L28.6081 74.4226L29.6973 75.975L12.7493 82.1404L11.6601 80.5881Z" fill="white"/>
<path d="M5.06624 59.0474L4.69976 56.8764L14.1331 55.284C15.1369 55.1146 16.0661 55.2002 16.9207 55.541C17.7706 55.8825 18.4895 56.443 19.0773 57.2225C19.6603 58.0028 20.0488 58.9672 20.2427 60.1158C20.4358 61.2596 20.385 62.2958 20.0904 63.2242C19.7911 64.1535 19.296 64.9189 18.6053 65.5205C17.9099 66.1229 17.0602 66.5088 16.0565 66.6782L6.62315 68.2706L6.25786 66.1066L15.5161 64.5438C16.165 64.4343 16.7176 64.1945 17.1738 63.8246C17.6291 63.45 17.957 62.9745 18.1574 62.3981C18.3532 61.8224 18.39 61.1728 18.2678 60.4491C18.1449 59.7208 17.8965 59.1169 17.5226 58.6374C17.1433 58.154 16.6779 57.8148 16.1264 57.6198C15.5741 57.4201 14.9734 57.375 14.3245 57.4846L5.06624 59.0474Z" fill="white"/>
<path d="M6.73165 40.5081L13.2796 39.2435L13.3195 39.137L9.21181 33.8832L10.1033 31.502L15.3256 38.2955L23.7354 36.5752L22.8389 38.9697L16.3592 40.275L16.3193 40.3814L20.3488 45.6211L19.4524 48.0157L14.2673 41.1224L5.84019 42.8893L6.73165 40.5081Z" fill="white"/>
<path d="M31.3402 27.987L27.7 30.9739L18.4736 19.7292L22.2291 16.6477C23.3309 15.7437 24.4618 15.1924 25.6219 14.9939C26.7789 14.7918 27.9118 14.9371 29.0205 15.4299C30.1299 15.9161 31.1636 16.743 32.1217 17.9107C33.0828 19.082 33.6946 20.2643 33.9571 21.4576C34.2233 22.6479 34.14 23.8003 33.7071 24.915C33.2712 26.0259 32.4823 27.05 31.3402 27.987ZM28.1802 28.0994L30.0305 26.5811C30.8871 25.8783 31.4669 25.1331 31.7699 24.3455C32.07 23.5542 32.1086 22.7354 31.8859 21.8892C31.6602 21.0394 31.1824 20.1697 30.4526 19.2802C29.7288 18.3981 28.9737 17.7652 28.1872 17.3815C27.4045 16.9948 26.6061 16.869 25.7921 17.004C24.9781 17.1391 24.1611 17.543 23.3412 18.2158L21.3865 19.8196L28.1802 28.0994Z" fill="white"/>
<path d="M43.497 20.6962L40.9623 6.37325L49.9421 4.78416L50.2713 6.64446L43.4526 7.85113L44.2248 12.2151L50.575 11.0914L50.903 12.9447L44.5528 14.0684L45.3288 18.4534L52.2315 17.2319L52.5607 19.0922L43.497 20.6962Z" fill="white"/>
<path d="M71.2106 11.6814C71.3435 11.018 71.2047 10.4267 70.7942 9.90744C70.3852 9.38371 69.7839 8.99479 68.9903 8.74067C68.4221 8.55874 67.9017 8.49155 67.4291 8.53908C66.9579 8.58211 66.5575 8.72238 66.2279 8.95988C65.9043 9.19433 65.6796 9.5077 65.554 9.90001C65.4486 10.2292 65.4343 10.5378 65.5111 10.8259C65.5924 11.1154 65.7333 11.3818 65.9339 11.625C66.1404 11.8651 66.3728 12.0862 66.6313 12.2883C66.8912 12.4859 67.1456 12.6618 67.3945 12.8161L68.6347 13.6009C69.0419 13.8507 69.4482 14.1423 69.8535 14.4759C70.2587 14.8095 70.6114 15.1909 70.9115 15.6201C71.2115 16.0493 71.4119 16.5261 71.5124 17.0505C71.6175 17.5763 71.5704 18.1504 71.3712 18.7727C71.1199 19.5573 70.6939 20.189 70.0932 20.6678C69.4969 21.1481 68.7592 21.4413 67.88 21.5476C67.0053 21.6553 66.0268 21.5359 64.9446 21.1894C63.9074 20.8573 63.0628 20.4054 62.4106 19.8336C61.7584 19.2619 61.3149 18.6053 61.08 17.8639C60.8465 17.1179 60.8408 16.3206 61.0628 15.472L63.1597 16.1434C63.04 16.6569 63.0688 17.126 63.246 17.5507C63.4292 17.9722 63.718 18.3357 64.1125 18.641C64.5129 18.9432 64.9814 19.1802 65.518 19.352C66.1087 19.5412 66.6636 19.6169 67.1828 19.5793C67.7079 19.5386 68.1569 19.3941 68.5298 19.1455C68.9041 18.8925 69.1635 18.5406 69.3079 18.0896C69.4393 17.6793 69.4296 17.3058 69.2788 16.9692C69.1326 16.634 68.8885 16.3172 68.5466 16.0188C68.2091 15.7218 67.8133 15.4285 67.3592 15.1389L65.8652 14.1684C64.8527 13.5111 64.1156 12.7854 63.6539 11.9912C63.1968 11.1985 63.1227 10.3197 63.4317 9.3547C63.6873 8.55655 64.1268 7.92916 64.7503 7.47254C65.3738 7.01592 66.108 6.74142 66.9529 6.64903C67.7993 6.55214 68.6869 6.65241 69.6159 6.94984C70.5538 7.25017 71.3286 7.67971 71.9401 8.23846C72.5562 8.79866 72.9793 9.43378 73.2094 10.1438C73.4408 10.8493 73.4465 11.577 73.2263 12.3268L71.2106 11.6814Z" fill="white"/>
<path d="M86.8968 16.9225L77.5197 28.0419L75.842 26.6271L85.2191 15.5077L86.8968 16.9225Z" fill="white"/>
<path d="M96.4767 38.1486C96.8042 37.8367 97.0705 37.5019 97.2756 37.1442C97.4871 36.7886 97.6321 36.4154 97.7105 36.0245C97.7932 35.6316 97.8031 35.224 97.74 34.8019C97.679 34.3841 97.5429 33.958 97.3317 33.5236C96.9736 32.787 96.4611 32.2148 95.7944 31.8072C95.1276 31.3995 94.3442 31.2013 93.4441 31.2125C92.5503 31.2258 91.5754 31.4892 90.5193 32.0027C89.459 32.5182 88.6465 33.1264 88.0818 33.8274C87.517 34.5284 87.1911 35.2713 87.1041 36.0559C87.017 36.8406 87.1598 37.6162 87.5324 38.3827C87.8782 39.0938 88.3242 39.643 88.8705 40.0302C89.4188 40.4217 90.0274 40.6339 90.6962 40.6667C91.3713 40.7018 92.0687 40.5444 92.7883 40.1945L92.941 40.752L91.1212 37.009L92.75 36.2172L95.2498 41.359L93.7616 42.0826C92.663 42.6167 91.5952 42.8462 90.5584 42.7712C89.528 42.6983 88.5937 42.3576 87.7555 41.749C86.9194 41.1446 86.2446 40.3144 85.7312 39.2584C85.1557 38.0746 84.923 36.9031 85.0333 35.7439C85.1457 34.5889 85.5811 33.519 86.3396 32.5343C87.1023 31.5475 88.1735 30.7187 89.5532 30.0479C90.5964 29.5407 91.6037 29.23 92.5748 29.1159C93.5459 29.0017 94.4484 29.0658 95.2821 29.308C96.1222 29.5524 96.8685 29.9556 97.5208 30.5177C98.1795 31.0819 98.7148 31.7877 99.1268 32.6351C99.4704 33.342 99.686 34.0506 99.7734 34.761C99.8628 35.4756 99.8319 36.1646 99.6805 36.8278C99.5312 37.4953 99.2691 38.115 98.8943 38.6868C98.5238 39.2566 98.046 39.7521 97.4611 40.1734L96.4767 38.1486Z" fill="white"/>
<path d="M103.176 64.3025L88.6846 63.0475L88.8587 61.0379L100.124 54.5925L100.136 54.458L89.5082 53.5376L89.6976 51.3512L104.189 52.6062L104.014 54.6299L92.733 61.0812L92.7214 61.2156L103.363 62.1373L103.176 64.3025Z" fill="white"/>
<path d="M86.0142 69.8338L98.0325 78.0272L92.8957 85.5621L91.3347 84.4979L95.2354 78.7763L91.5735 76.2799L87.9409 81.6083L86.3858 80.5481L90.0184 75.2197L86.339 72.7113L82.3904 78.5033L80.8294 77.4391L86.0142 69.8338Z" fill="white"/>
<path d="M75.0886 82.769L81.9006 95.6207L77.3197 98.0488C76.3241 98.5766 75.4069 98.843 74.5683 98.8481C73.7254 98.8554 72.9801 98.6423 72.3322 98.2086C71.6866 97.7792 71.1543 97.1691 70.7351 96.3784C70.3183 95.5919 70.1165 94.812 70.1299 94.0386C70.1413 93.2715 70.39 92.5476 70.8758 91.8667C71.3574 91.1881 72.0961 90.5849 73.0917 90.0571L76.5619 88.2177L77.4467 89.887L74.1522 91.6332C73.5247 91.9658 73.062 92.3263 72.7641 92.7147C72.462 93.1052 72.3098 93.5208 72.3076 93.9614C72.3054 94.402 72.4317 94.8629 72.6867 95.344C72.944 95.8293 73.261 96.1998 73.6377 96.4556C74.0103 96.7136 74.4452 96.8315 74.9424 96.8091C75.4376 96.7931 76.0053 96.6154 76.6454 96.2761L79.0801 94.9856L73.1495 83.7968L75.0886 82.769ZM71.8177 91.9301L65.569 87.8149L67.7779 86.6441L73.9638 90.7926L71.8177 91.9301Z" fill="white"/>
<path d="M57.9369 88.816C58.3233 88.7785 58.6688 88.883 58.9734 89.1293C59.2784 89.3804 59.4499 89.7015 59.4878 90.0927C59.5253 90.4791 59.4183 90.8225 59.1667 91.1228C58.9157 91.4278 58.5969 91.5991 58.2105 91.6366C57.824 91.6741 57.4783 91.5672 57.1733 91.3162C56.8687 91.0698 56.6977 90.7534 56.6602 90.3669C56.6351 90.1077 56.678 89.8633 56.7889 89.6338C56.8956 89.4094 57.0488 89.2232 57.2485 89.0754C57.4482 88.9276 57.6777 88.8411 57.9369 88.816Z" fill="white"/>
<g filter="url(#filter0_bd_1_202)">
<circle cx="55" cy="54" r="25" fill="black"/>
</g>
<path d="M37.799 59V51.7273H38.8963V54.8878H42.522V51.7273H43.6229V59H42.522V55.8288H38.8963V59H37.799ZM45.1357 59V53.5455H46.1974V59H45.1357ZM45.6719 52.7038C45.4872 52.7038 45.3286 52.6423 45.196 52.5192C45.0658 52.3937 45.0007 52.2446 45.0007 52.0717C45.0007 51.8965 45.0658 51.7474 45.196 51.6243C45.3286 51.4988 45.4872 51.4361 45.6719 51.4361C45.8565 51.4361 46.014 51.4988 46.1442 51.6243C46.2768 51.7474 46.343 51.8965 46.343 52.0717C46.343 52.2446 46.2768 52.3937 46.1442 52.5192C46.014 52.6423 45.8565 52.7038 45.6719 52.7038ZM47.6259 59V53.5455H48.6522V54.4119H48.709C48.8084 54.1184 48.9836 53.8875 49.2346 53.7195C49.4879 53.549 49.7743 53.4638 50.0939 53.4638C50.1602 53.4638 50.2383 53.4661 50.3283 53.4709C50.4206 53.4756 50.4928 53.4815 50.5449 53.4886V54.5043C50.5023 54.4924 50.4266 54.4794 50.3176 54.4652C50.2087 54.4486 50.0998 54.4403 49.9909 54.4403C49.74 54.4403 49.5163 54.4936 49.3198 54.6001C49.1257 54.7043 48.9718 54.8499 48.8581 55.0369C48.7445 55.2216 48.6877 55.4323 48.6877 55.669V59H47.6259ZM53.6193 59.1101C53.0819 59.1101 52.6191 58.9953 52.2308 58.7656C51.8449 58.5336 51.5466 58.2081 51.3359 57.7891C51.1276 57.3677 51.0234 56.8741 51.0234 56.3082C51.0234 55.7495 51.1276 55.2571 51.3359 54.831C51.5466 54.4048 51.8402 54.0722 52.2166 53.8331C52.5954 53.594 53.0381 53.4744 53.5447 53.4744C53.8525 53.4744 54.1508 53.5253 54.4396 53.6271C54.7285 53.7289 54.9877 53.8887 55.2173 54.1065C55.447 54.3243 55.6281 54.6072 55.7607 54.9553C55.8932 55.3009 55.9595 55.7211 55.9595 56.2159V56.5923H51.6236V55.7969H54.919C54.919 55.5175 54.8622 55.2701 54.7486 55.0547C54.6349 54.8369 54.4751 54.6652 54.2692 54.5398C54.0656 54.4143 53.8265 54.3516 53.5518 54.3516C53.2536 54.3516 52.9931 54.425 52.7706 54.5717C52.5504 54.7161 52.38 54.9055 52.2592 55.1399C52.1409 55.3719 52.0817 55.6241 52.0817 55.8963V56.5178C52.0817 56.8823 52.1456 57.1925 52.2734 57.4482C52.4036 57.7038 52.5848 57.8991 52.8168 58.0341C53.0488 58.1667 53.3198 58.233 53.63 58.233C53.8312 58.233 54.0147 58.2045 54.1804 58.1477C54.3461 58.0885 54.4893 58.0009 54.6101 57.8849C54.7308 57.7689 54.8232 57.6257 54.8871 57.4553L55.892 57.6364C55.8116 57.9323 55.6671 58.1915 55.4588 58.4141C55.2528 58.6342 54.9936 58.8059 54.6811 58.929C54.371 59.0497 54.017 59.1101 53.6193 59.1101ZM59.8693 51.7273H61.201L63.5163 57.3807H63.6016L65.9169 51.7273H67.2486V59H66.2045V53.7372H66.1371L63.9922 58.9893H63.1257L60.9808 53.7337H60.9134V59H59.8693V51.7273ZM71.1096 59.1101C70.5721 59.1101 70.1093 58.9953 69.7211 58.7656C69.3352 58.5336 69.0369 58.2081 68.8262 57.7891C68.6178 57.3677 68.5137 56.8741 68.5137 56.3082C68.5137 55.7495 68.6178 55.2571 68.8262 54.831C69.0369 54.4048 69.3304 54.0722 69.7069 53.8331C70.0856 53.594 70.5283 53.4744 71.035 53.4744C71.3427 53.4744 71.641 53.5253 71.9299 53.6271C72.2187 53.7289 72.4779 53.8887 72.7076 54.1065C72.9372 54.3243 73.1183 54.6072 73.2509 54.9553C73.3835 55.3009 73.4498 55.7211 73.4498 56.2159V56.5923H69.1138V55.7969H72.4093C72.4093 55.5175 72.3525 55.2701 72.2388 55.0547C72.1252 54.8369 71.9654 54.6652 71.7594 54.5398C71.5558 54.4143 71.3167 54.3516 71.0421 54.3516C70.7438 54.3516 70.4834 54.425 70.2608 54.5717C70.0407 54.7161 69.8702 54.9055 69.7495 55.1399C69.6311 55.3719 69.5719 55.6241 69.5719 55.8963V56.5178C69.5719 56.8823 69.6358 57.1925 69.7637 57.4482C69.8939 57.7038 70.075 57.8991 70.307 58.0341C70.539 58.1667 70.8101 58.233 71.1202 58.233C71.3214 58.233 71.5049 58.2045 71.6706 58.1477C71.8364 58.0885 71.9796 58.0009 72.1003 57.8849C72.2211 57.7689 72.3134 57.6257 72.3773 57.4553L73.3823 57.6364C73.3018 57.9323 73.1574 58.1915 72.949 58.4141C72.7431 58.6342 72.4838 58.8059 72.1713 58.929C71.8612 59.0497 71.5073 59.1101 71.1096 59.1101Z" fill="white"/>
<defs>
<filter id="filter0_bd_1_202" x="22" y="21" width="68" height="68" filterUnits="userSpaceOnUse" color-interpolation-filters="sRGB">
<feFlood flood-opacity="0" result="BackgroundImageFix"/>
<feGaussianBlur in="BackgroundImageFix" stdDeviation="2"/>
<feComposite in2="SourceAlpha" operator="in" result="effect1_backgroundBlur_1_202"/>
<feColorMatrix in="SourceAlpha" type="matrix" values="0 0 0 0 0 0 0 0 0 0 0 0 0 0 0 0 0 0 127 0" result="hardAlpha"/>
<feMorphology radius="2" operator="dilate" in="SourceAlpha" result="effect2_dropShadow_1_202"/>
<feOffset dx="1" dy="1"/>
<feGaussianBlur stdDeviation="3.5"/>
<feComposite in2="hardAlpha" operator="out"/>
<feColorMatrix type="matrix" values="0 0 0 0 0 0 0 0 0 0 0 0 0 0 0 0 0 0 0.45 0"/>
<feBlend mode="normal" in2="effect1_backgroundBlur_1_202" result="effect2_dropShadow_1_202"/>
<feBlend mode="normal" in="SourceGraphic" in2="effect2_dropShadow_1_202" result="shape"/>
</filter>
</defs>
</svg>
